<mxfile host="65bd71144e">
    <diagram id="aaCwFQ8-ArP40y1Mnge1" name="Page-1">
        <mxGraphModel dx="1084" dy="1969" grid="1" gridSize="10" guides="1" tooltips="1" connect="1" arrows="1" fold="1" page="1" pageScale="1" pageWidth="827" pageHeight="1169" math="0" shadow="0">
            <root>
                <mxCell id="0"/>
                <mxCell id="1" parent="0"/>
                <mxCell id="5" value="&lt;div style=&quot;color: rgb(204, 204, 204); background-color: rgb(31, 31, 31); font-family: &amp;quot;Droid Sans Mono&amp;quot;, &amp;quot;monospace&amp;quot;, monospace; font-size: 14px; line-height: 19px;&quot;&gt;&lt;div&gt;&lt;span style=&quot;color: #ce9178;&quot;&gt;axi_araddr&lt;/span&gt;&lt;/div&gt;&lt;div&gt;&lt;span style=&quot;color: #ce9178;&quot;&gt;axi_arburst&lt;/span&gt;&lt;/div&gt;&lt;div&gt;&lt;span style=&quot;color: #ce9178;&quot;&gt;axi_arcache&lt;/span&gt;&lt;/div&gt;&lt;div&gt;&lt;span style=&quot;color: #ce9178;&quot;&gt;axi_arid&lt;/span&gt;&lt;/div&gt;&lt;div&gt;&lt;span style=&quot;color: #ce9178;&quot;&gt;axi_arlen&lt;/span&gt;&lt;/div&gt;&lt;div&gt;&lt;span style=&quot;color: #ce9178;&quot;&gt;axi_arlock&lt;/span&gt;&lt;/div&gt;&lt;div&gt;&lt;span style=&quot;color: #ce9178;&quot;&gt;axi_arprot&lt;/span&gt;&lt;/div&gt;&lt;div&gt;&lt;span style=&quot;color: #ce9178;&quot;&gt;axi_arqos&lt;/span&gt;&lt;/div&gt;&lt;div&gt;&lt;span style=&quot;color: #ce9178;&quot;&gt;axi_arregion&lt;/span&gt;&lt;/div&gt;&lt;div&gt;&lt;span style=&quot;color: #ce9178;&quot;&gt;axi_arsize&lt;/span&gt;&lt;/div&gt;&lt;div&gt;&lt;span style=&quot;color: #ce9178;&quot;&gt;axi_aruser&lt;/span&gt;&lt;/div&gt;&lt;/div&gt;" style="text;html=1;strokeColor=default;fillColor=none;align=center;verticalAlign=middle;whiteSpace=wrap;rounded=0;fontColor=#FFFFFF;" parent="1" vertex="1">
                    <mxGeometry x="313" y="770" width="150" height="260" as="geometry"/>
                </mxCell>
                <mxCell id="8" value="&lt;div style=&quot;color: rgb(204, 204, 204); background-color: rgb(31, 31, 31); font-family: &amp;quot;Droid Sans Mono&amp;quot;, &amp;quot;monospace&amp;quot;, monospace; font-weight: normal; font-size: 14px; line-height: 19px;&quot;&gt;&lt;div&gt;&lt;span style=&quot;color: #4fc1ff;&quot;&gt;AR_CHAN_T&lt;/span&gt;&lt;/div&gt;&lt;/div&gt;" style="text;whiteSpace=wrap;html=1;fontColor=#FF8000;rotation=-90;" parent="1" vertex="1">
                    <mxGeometry x="245" y="870" width="110" height="40" as="geometry"/>
                </mxCell>
                <mxCell id="9" value="&lt;div style=&quot;color: rgb(204, 204, 204); background-color: rgb(31, 31, 31); font-family: &amp;quot;Droid Sans Mono&amp;quot;, &amp;quot;monospace&amp;quot;, monospace; font-size: 14px; line-height: 19px;&quot;&gt;&lt;div&gt;&lt;span style=&quot;color: #ce9178;&quot;&gt;axi_rdata&lt;/span&gt;&lt;/div&gt;&lt;div&gt;&lt;span style=&quot;color: #ce9178;&quot;&gt;axi_rid&lt;/span&gt;&lt;/div&gt;&lt;div&gt;&lt;span style=&quot;color: #ce9178;&quot;&gt;axi_rlast&lt;/span&gt;&lt;/div&gt;&lt;div&gt;&lt;span style=&quot;color: #ce9178;&quot;&gt;axi_rresp&lt;/span&gt;&lt;/div&gt;&lt;div&gt;&lt;span style=&quot;color: #ce9178;&quot;&gt;axi_ruser&lt;/span&gt;&lt;/div&gt;&lt;div&gt;&lt;span style=&quot;color: #ce9178;&quot;&gt;axi_rvalid&lt;/span&gt;&lt;/div&gt;&lt;/div&gt;" style="text;html=1;strokeColor=default;fillColor=none;align=center;verticalAlign=middle;whiteSpace=wrap;rounded=0;fontColor=#FF8000;" parent="1" vertex="1">
                    <mxGeometry x="313" y="1150" width="150" height="150" as="geometry"/>
                </mxCell>
                <mxCell id="13" value="" style="shape=flexArrow;endArrow=classic;html=1;fontColor=#FF8000;width=11.764705882352942;endSize=8.329411764705883;exitX=1;exitY=0.5;exitDx=0;exitDy=0;" parent="1" source="5" target="71" edge="1">
                    <mxGeometry width="50" height="50" relative="1" as="geometry">
                        <mxPoint x="463" y="889.41" as="sourcePoint"/>
                        <mxPoint x="533" y="889.41" as="targetPoint"/>
                    </mxGeometry>
                </mxCell>
                <mxCell id="14" value="" style="shape=flexArrow;endArrow=classic;html=1;fontColor=#FF8000;width=11.764705882352942;endSize=8.329411764705883;" parent="1" source="82" edge="1">
                    <mxGeometry width="50" height="50" relative="1" as="geometry">
                        <mxPoint x="533" y="1224" as="sourcePoint"/>
                        <mxPoint x="460" y="1220" as="targetPoint"/>
                    </mxGeometry>
                </mxCell>
                <mxCell id="17" value="&lt;div style=&quot;color: rgb(204, 204, 204); background-color: rgb(31, 31, 31); font-family: &amp;quot;Droid Sans Mono&amp;quot;, &amp;quot;monospace&amp;quot;, monospace; font-size: 14px; line-height: 19px;&quot;&gt;&lt;div style=&quot;line-height: 19px;&quot;&gt;axi_awaddr&lt;/div&gt;&lt;div style=&quot;line-height: 19px;&quot;&gt;axi_awatop&lt;br&gt;&lt;/div&gt;&lt;div style=&quot;line-height: 19px;&quot;&gt;axi_awburst&lt;/div&gt;&lt;div style=&quot;line-height: 19px;&quot;&gt;axi_awcache&lt;/div&gt;&lt;div style=&quot;line-height: 19px;&quot;&gt;axi_awid&lt;/div&gt;&lt;div style=&quot;line-height: 19px;&quot;&gt;axi_awlen&lt;/div&gt;&lt;div style=&quot;line-height: 19px;&quot;&gt;axi_awlock&lt;/div&gt;&lt;div style=&quot;line-height: 19px;&quot;&gt;axi_awprot&lt;/div&gt;&lt;div style=&quot;line-height: 19px;&quot;&gt;axi_awqos&lt;/div&gt;&lt;div style=&quot;line-height: 19px;&quot;&gt;axi_awregion&lt;/div&gt;&lt;div style=&quot;line-height: 19px;&quot;&gt;axi_awsize&lt;/div&gt;&lt;div style=&quot;line-height: 19px;&quot;&gt;axi_awuser&lt;/div&gt;&lt;/div&gt;" style="text;html=1;strokeColor=default;fillColor=none;align=center;verticalAlign=middle;whiteSpace=wrap;rounded=0;fontColor=#FFFFFF;" parent="1" vertex="1">
                    <mxGeometry x="597" y="20" width="150" height="250" as="geometry"/>
                </mxCell>
                <mxCell id="3" value="&lt;div style=&quot;color: rgb(204, 204, 204); background-color: rgb(31, 31, 31); font-family: &amp;quot;Droid Sans Mono&amp;quot;, &amp;quot;monospace&amp;quot;, monospace; font-size: 14px; line-height: 19px;&quot;&gt;&lt;div style=&quot;line-height: 19px;&quot;&gt;axi_awaddr&lt;/div&gt;&lt;div style=&quot;line-height: 19px;&quot;&gt;axi_awatop&lt;br&gt;&lt;/div&gt;&lt;div style=&quot;line-height: 19px;&quot;&gt;axi_awburst&lt;/div&gt;&lt;div style=&quot;line-height: 19px;&quot;&gt;axi_awcache&lt;/div&gt;&lt;div style=&quot;line-height: 19px;&quot;&gt;axi_awid&lt;/div&gt;&lt;div style=&quot;line-height: 19px;&quot;&gt;axi_awlen&lt;/div&gt;&lt;div style=&quot;line-height: 19px;&quot;&gt;axi_awlock&lt;/div&gt;&lt;div style=&quot;line-height: 19px;&quot;&gt;axi_awprot&lt;/div&gt;&lt;div style=&quot;line-height: 19px;&quot;&gt;axi_awqos&lt;/div&gt;&lt;div style=&quot;line-height: 19px;&quot;&gt;axi_awregion&lt;/div&gt;&lt;div style=&quot;line-height: 19px;&quot;&gt;axi_awsize&lt;/div&gt;&lt;div style=&quot;line-height: 19px;&quot;&gt;axi_awuser&lt;/div&gt;&lt;/div&gt;" style="text;html=1;strokeColor=default;fillColor=none;align=center;verticalAlign=middle;whiteSpace=wrap;rounded=0;fontColor=#FFFFFF;" parent="1" vertex="1">
                    <mxGeometry x="305" y="20" width="150" height="250" as="geometry"/>
                </mxCell>
                <mxCell id="6" value="&lt;div style=&quot;color: rgb(204, 204, 204); background-color: rgb(31, 31, 31); font-family: &amp;quot;Droid Sans Mono&amp;quot;, &amp;quot;monospace&amp;quot;, monospace; font-size: 14px; line-height: 19px;&quot;&gt;&lt;span style=&quot;color: #4fc1ff;&quot;&gt;AW_CHAN_T&lt;/span&gt;&lt;/div&gt;" style="text;html=1;strokeColor=none;fillColor=none;align=center;verticalAlign=middle;whiteSpace=wrap;rounded=0;fontColor=#FF8000;rotation=-90;" parent="1" vertex="1">
                    <mxGeometry x="235" y="135" width="100" height="30" as="geometry"/>
                </mxCell>
                <mxCell id="11" value="" style="shape=flexArrow;endArrow=classic;html=1;fontColor=#FF8000;width=11.764705882352942;endSize=8.329411764705883;entryX=0;entryY=0.5;entryDx=0;entryDy=0;exitX=1;exitY=0.5;exitDx=0;exitDy=0;" parent="1" source="3" target="17" edge="1">
                    <mxGeometry width="50" height="50" relative="1" as="geometry">
                        <mxPoint x="455" y="149.40999999999997" as="sourcePoint"/>
                        <mxPoint x="525" y="149.40999999999997" as="targetPoint"/>
                    </mxGeometry>
                </mxCell>
                <mxCell id="25" value="" style="group" parent="1" vertex="1" connectable="0">
                    <mxGeometry x="310" y="290" width="150" height="70" as="geometry"/>
                </mxCell>
                <mxCell id="21" value="&lt;div style=&quot;color: rgb(204, 204, 204); background-color: rgb(31, 31, 31); font-family: &amp;quot;Droid Sans Mono&amp;quot;, &amp;quot;monospace&amp;quot;, monospace; font-size: 14px; line-height: 19px;&quot;&gt;&lt;div&gt;&lt;span style=&quot;color: #ce9178;&quot;&gt;axi_awvalid&lt;/span&gt;&lt;/div&gt;&lt;/div&gt;" style="text;html=1;strokeColor=none;fillColor=none;align=center;verticalAlign=middle;whiteSpace=wrap;rounded=0;fontColor=#FF8000;" parent="25" vertex="1">
                    <mxGeometry width="150" height="30" as="geometry"/>
                </mxCell>
                <mxCell id="22" value="&lt;div style=&quot;color: rgb(204, 204, 204); background-color: rgb(31, 31, 31); font-family: &amp;quot;Droid Sans Mono&amp;quot;, &amp;quot;monospace&amp;quot;, monospace; font-size: 14px; line-height: 19px;&quot;&gt;&lt;div&gt;&lt;span style=&quot;color: rgb(206, 145, 120);&quot;&gt;axi_awready&lt;/span&gt;&lt;br&gt;&lt;/div&gt;&lt;/div&gt;" style="text;html=1;strokeColor=none;fillColor=none;align=center;verticalAlign=middle;whiteSpace=wrap;rounded=0;fontColor=#FF8000;" parent="25" vertex="1">
                    <mxGeometry x="5" y="40" width="145" height="30" as="geometry"/>
                </mxCell>
                <mxCell id="29" value="" style="endArrow=classic;html=1;fontColor=#FF8000;entryX=0;entryY=0.5;entryDx=0;entryDy=0;exitX=1;exitY=0.5;exitDx=0;exitDy=0;" parent="1" source="21" target="27" edge="1">
                    <mxGeometry width="50" height="50" relative="1" as="geometry">
                        <mxPoint x="450" y="370" as="sourcePoint"/>
                        <mxPoint x="500" y="320" as="targetPoint"/>
                    </mxGeometry>
                </mxCell>
                <mxCell id="30" value="" style="endArrow=classic;html=1;fontColor=#FF8000;exitX=0;exitY=0.5;exitDx=0;exitDy=0;entryX=1;entryY=0.5;entryDx=0;entryDy=0;" parent="1" source="28" target="22" edge="1">
                    <mxGeometry width="50" height="50" relative="1" as="geometry">
                        <mxPoint x="450" y="370" as="sourcePoint"/>
                        <mxPoint x="500" y="320" as="targetPoint"/>
                    </mxGeometry>
                </mxCell>
                <mxCell id="27" value="&lt;div style=&quot;color: rgb(204, 204, 204); background-color: rgb(31, 31, 31); font-family: &amp;quot;Droid Sans Mono&amp;quot;, &amp;quot;monospace&amp;quot;, monospace; font-size: 14px; line-height: 19px;&quot;&gt;&lt;div&gt;&lt;span style=&quot;color: #ce9178;&quot;&gt;axi_awvalid&lt;/span&gt;&lt;/div&gt;&lt;/div&gt;" style="text;html=1;strokeColor=none;fillColor=none;align=center;verticalAlign=middle;whiteSpace=wrap;rounded=0;fontColor=#FF8000;" parent="1" vertex="1">
                    <mxGeometry x="600" y="290" width="150" height="30" as="geometry"/>
                </mxCell>
                <mxCell id="28" value="&lt;div style=&quot;color: rgb(204, 204, 204); background-color: rgb(31, 31, 31); font-family: &amp;quot;Droid Sans Mono&amp;quot;, &amp;quot;monospace&amp;quot;, monospace; font-size: 14px; line-height: 19px;&quot;&gt;&lt;div&gt;&lt;span style=&quot;color: rgb(206, 145, 120);&quot;&gt;axi_awready&lt;/span&gt;&lt;br&gt;&lt;/div&gt;&lt;/div&gt;" style="text;html=1;strokeColor=none;fillColor=none;align=center;verticalAlign=middle;whiteSpace=wrap;rounded=0;fontColor=#FF8000;" parent="1" vertex="1">
                    <mxGeometry x="605" y="330" width="145" height="30" as="geometry"/>
                </mxCell>
                <mxCell id="31" value="&lt;div style=&quot;color: rgb(204, 204, 204); background-color: rgb(31, 31, 31); font-family: &amp;quot;Droid Sans Mono&amp;quot;, &amp;quot;monospace&amp;quot;, monospace; font-size: 14px; line-height: 19px;&quot;&gt;&lt;span style=&quot;color: #4fc1ff;&quot;&gt;REQ_T&lt;/span&gt;&lt;/div&gt;" style="text;html=1;strokeColor=default;fillColor=#000066;align=center;verticalAlign=middle;whiteSpace=wrap;rounded=0;fontColor=#FF8000;" parent="1" vertex="1">
                    <mxGeometry x="185" y="20" width="60" height="290" as="geometry"/>
                </mxCell>
                <mxCell id="32" value="&lt;div style=&quot;color: rgb(204, 204, 204); background-color: rgb(31, 31, 31); font-family: &amp;quot;Droid Sans Mono&amp;quot;, &amp;quot;monospace&amp;quot;, monospace; font-weight: normal; font-size: 14px; line-height: 19px;&quot;&gt;&lt;div&gt;&lt;span style=&quot;color: #4fc1ff;&quot;&gt;RESP_T&lt;/span&gt;&lt;/div&gt;&lt;/div&gt;" style="text;whiteSpace=wrap;html=1;fontColor=#FF8000;strokeColor=default;align=center;" parent="1" vertex="1">
                    <mxGeometry x="185" y="330" width="60" height="30" as="geometry"/>
                </mxCell>
                <mxCell id="35" value="&lt;div style=&quot;color: rgb(204, 204, 204); background-color: rgb(31, 31, 31); font-family: &amp;quot;Droid Sans Mono&amp;quot;, &amp;quot;monospace&amp;quot;, monospace; font-size: 14px; line-height: 19px;&quot;&gt;&lt;div&gt;&lt;span style=&quot;color: #ce9178;&quot;&gt;axi_wdata&lt;/span&gt;&lt;/div&gt;&lt;div&gt;&lt;span style=&quot;color: #ce9178;&quot;&gt;axi_wlast&lt;/span&gt;&lt;/div&gt;&lt;div&gt;&lt;span style=&quot;color: #ce9178;&quot;&gt;axi_wstrb&lt;/span&gt;&lt;/div&gt;&lt;div&gt;&lt;span style=&quot;color: #ce9178;&quot;&gt;axi_wvalid&lt;/span&gt;&lt;/div&gt;&lt;/div&gt;" style="text;html=1;strokeColor=default;fillColor=none;align=center;verticalAlign=middle;whiteSpace=wrap;rounded=0;fontColor=#FFFFFF;" parent="1" vertex="1">
                    <mxGeometry x="600" y="393" width="150" height="120" as="geometry"/>
                </mxCell>
                <mxCell id="4" value="&lt;div style=&quot;color: rgb(204, 204, 204); background-color: rgb(31, 31, 31); font-family: &amp;quot;Droid Sans Mono&amp;quot;, &amp;quot;monospace&amp;quot;, monospace; font-size: 14px; line-height: 19px;&quot;&gt;&lt;div&gt;&lt;span style=&quot;color: #ce9178;&quot;&gt;axi_wdata&lt;/span&gt;&lt;/div&gt;&lt;div&gt;&lt;span style=&quot;color: #ce9178;&quot;&gt;axi_wlast&lt;/span&gt;&lt;/div&gt;&lt;div&gt;&lt;span style=&quot;color: #ce9178;&quot;&gt;axi_wstrb&lt;/span&gt;&lt;/div&gt;&lt;div&gt;&lt;span style=&quot;color: #ce9178;&quot;&gt;axi_wvalid&lt;/span&gt;&lt;/div&gt;&lt;/div&gt;" style="text;html=1;strokeColor=default;fillColor=none;align=center;verticalAlign=middle;whiteSpace=wrap;rounded=0;fontColor=#FFFFFF;" parent="1" vertex="1">
                    <mxGeometry x="305" y="390" width="150" height="120" as="geometry"/>
                </mxCell>
                <mxCell id="7" value="&lt;div style=&quot;color: rgb(204, 204, 204); background-color: rgb(31, 31, 31); font-family: &amp;quot;Droid Sans Mono&amp;quot;, &amp;quot;monospace&amp;quot;, monospace; font-size: 14px; line-height: 19px;&quot;&gt;&lt;span style=&quot;color: #4fc1ff;&quot;&gt;W_CHAN_T&lt;/span&gt;&lt;/div&gt;" style="text;html=1;strokeColor=none;fillColor=none;align=center;verticalAlign=middle;whiteSpace=wrap;rounded=0;fontColor=#FF8000;rotation=-90;" parent="1" vertex="1">
                    <mxGeometry x="256" y="429" width="60" height="30" as="geometry"/>
                </mxCell>
                <mxCell id="12" value="" style="shape=flexArrow;endArrow=classic;html=1;fontColor=#FF8000;width=11.764705882352942;endSize=8.329411764705883;exitX=1;exitY=0.5;exitDx=0;exitDy=0;" parent="1" source="4" target="35" edge="1">
                    <mxGeometry width="50" height="50" relative="1" as="geometry">
                        <mxPoint x="455" y="439.9999999999999" as="sourcePoint"/>
                        <mxPoint x="525" y="439.9999999999999" as="targetPoint"/>
                    </mxGeometry>
                </mxCell>
                <mxCell id="38" value="" style="group" parent="1" vertex="1" connectable="0">
                    <mxGeometry x="308" y="529" width="150" height="70" as="geometry"/>
                </mxCell>
                <mxCell id="39" value="&lt;div style=&quot;color: rgb(204, 204, 204); background-color: rgb(31, 31, 31); font-family: &amp;quot;Droid Sans Mono&amp;quot;, &amp;quot;monospace&amp;quot;, monospace; font-size: 14px; line-height: 19px;&quot;&gt;&lt;div&gt;&lt;span style=&quot;color: #ce9178;&quot;&gt;axi_wvalid&lt;/span&gt;&lt;/div&gt;&lt;/div&gt;" style="text;html=1;strokeColor=none;fillColor=none;align=center;verticalAlign=middle;whiteSpace=wrap;rounded=0;fontColor=#FF8000;" parent="38" vertex="1">
                    <mxGeometry width="150" height="30" as="geometry"/>
                </mxCell>
                <mxCell id="40" value="&lt;div style=&quot;color: rgb(204, 204, 204); background-color: rgb(31, 31, 31); font-family: &amp;quot;Droid Sans Mono&amp;quot;, &amp;quot;monospace&amp;quot;, monospace; font-size: 14px; line-height: 19px;&quot;&gt;&lt;div&gt;&lt;span style=&quot;color: rgb(206, 145, 120);&quot;&gt;axi_wready&lt;/span&gt;&lt;br&gt;&lt;/div&gt;&lt;/div&gt;" style="text;html=1;strokeColor=none;fillColor=none;align=center;verticalAlign=middle;whiteSpace=wrap;rounded=0;fontColor=#FF8000;" parent="38" vertex="1">
                    <mxGeometry x="5" y="40" width="145" height="30" as="geometry"/>
                </mxCell>
                <mxCell id="41" value="" style="endArrow=classic;html=1;fontColor=#FF8000;entryX=0;entryY=0.5;entryDx=0;entryDy=0;exitX=1;exitY=0.5;exitDx=0;exitDy=0;" parent="1" source="39" target="43" edge="1">
                    <mxGeometry width="50" height="50" relative="1" as="geometry">
                        <mxPoint x="448" y="609" as="sourcePoint"/>
                        <mxPoint x="498" y="559" as="targetPoint"/>
                    </mxGeometry>
                </mxCell>
                <mxCell id="42" value="" style="endArrow=classic;html=1;fontColor=#FF8000;exitX=0;exitY=0.5;exitDx=0;exitDy=0;entryX=1;entryY=0.5;entryDx=0;entryDy=0;" parent="1" source="44" target="40" edge="1">
                    <mxGeometry width="50" height="50" relative="1" as="geometry">
                        <mxPoint x="448" y="609" as="sourcePoint"/>
                        <mxPoint x="498" y="559" as="targetPoint"/>
                    </mxGeometry>
                </mxCell>
                <mxCell id="43" value="&lt;div style=&quot;color: rgb(204, 204, 204); background-color: rgb(31, 31, 31); font-family: &amp;quot;Droid Sans Mono&amp;quot;, &amp;quot;monospace&amp;quot;, monospace; font-size: 14px; line-height: 19px;&quot;&gt;&lt;div&gt;&lt;span style=&quot;color: #ce9178;&quot;&gt;axi_wvalid&lt;/span&gt;&lt;/div&gt;&lt;/div&gt;" style="text;html=1;strokeColor=none;fillColor=none;align=center;verticalAlign=middle;whiteSpace=wrap;rounded=0;fontColor=#FF8000;" parent="1" vertex="1">
                    <mxGeometry x="598" y="529" width="150" height="30" as="geometry"/>
                </mxCell>
                <mxCell id="44" value="&lt;div style=&quot;color: rgb(204, 204, 204); background-color: rgb(31, 31, 31); font-family: &amp;quot;Droid Sans Mono&amp;quot;, &amp;quot;monospace&amp;quot;, monospace; font-size: 14px; line-height: 19px;&quot;&gt;&lt;div&gt;&lt;span style=&quot;color: rgb(206, 145, 120);&quot;&gt;axi_wready&lt;/span&gt;&lt;br&gt;&lt;/div&gt;&lt;/div&gt;" style="text;html=1;strokeColor=none;fillColor=none;align=center;verticalAlign=middle;whiteSpace=wrap;rounded=0;fontColor=#FF8000;" parent="1" vertex="1">
                    <mxGeometry x="603" y="569" width="145" height="30" as="geometry"/>
                </mxCell>
                <mxCell id="45" value="&lt;div style=&quot;color: rgb(204, 204, 204); background-color: rgb(31, 31, 31); font-family: &amp;quot;Droid Sans Mono&amp;quot;, &amp;quot;monospace&amp;quot;, monospace; font-size: 14px; line-height: 19px;&quot;&gt;&lt;span style=&quot;color: #4fc1ff;&quot;&gt;REQ_T&lt;/span&gt;&lt;/div&gt;" style="text;html=1;strokeColor=default;fillColor=#000066;align=center;verticalAlign=middle;whiteSpace=wrap;rounded=0;fontColor=#FF8000;" parent="1" vertex="1">
                    <mxGeometry x="185" y="390" width="60" height="170" as="geometry"/>
                </mxCell>
                <mxCell id="46" value="&lt;div style=&quot;color: rgb(204, 204, 204); background-color: rgb(31, 31, 31); font-family: &amp;quot;Droid Sans Mono&amp;quot;, &amp;quot;monospace&amp;quot;, monospace; font-weight: normal; font-size: 14px; line-height: 19px;&quot;&gt;&lt;div&gt;&lt;span style=&quot;color: #4fc1ff;&quot;&gt;RESP_T&lt;/span&gt;&lt;/div&gt;&lt;/div&gt;" style="text;whiteSpace=wrap;html=1;fontColor=#FF8000;strokeColor=default;align=center;verticalAlign=middle;" parent="1" vertex="1">
                    <mxGeometry x="187" y="567" width="60" height="103" as="geometry"/>
                </mxCell>
                <mxCell id="56" value="" style="group;fillColor=none;" parent="1" vertex="1" connectable="0">
                    <mxGeometry x="240" y="679" width="515" height="79" as="geometry"/>
                </mxCell>
                <mxCell id="47" value="" style="group" parent="56" vertex="1" connectable="0">
                    <mxGeometry x="67" width="150" height="70" as="geometry"/>
                </mxCell>
                <mxCell id="48" value="&lt;div style=&quot;color: rgb(204, 204, 204); background-color: rgb(31, 31, 31); font-family: &amp;quot;Droid Sans Mono&amp;quot;, &amp;quot;monospace&amp;quot;, monospace; font-size: 14px; line-height: 19px;&quot;&gt;&lt;div&gt;&lt;span style=&quot;color: #ce9178;&quot;&gt;axi_bvalid&lt;/span&gt;&lt;/div&gt;&lt;/div&gt;" style="text;html=1;strokeColor=none;fillColor=none;align=center;verticalAlign=middle;whiteSpace=wrap;rounded=0;fontColor=#FF8000;" parent="47" vertex="1">
                    <mxGeometry width="150" height="30" as="geometry"/>
                </mxCell>
                <mxCell id="49" value="&lt;div style=&quot;color: rgb(204, 204, 204); background-color: rgb(31, 31, 31); font-family: &amp;quot;Droid Sans Mono&amp;quot;, &amp;quot;monospace&amp;quot;, monospace; font-size: 14px; line-height: 19px;&quot;&gt;&lt;div&gt;&lt;span style=&quot;color: rgb(206, 145, 120);&quot;&gt;axi_bready&lt;/span&gt;&lt;br&gt;&lt;/div&gt;&lt;/div&gt;" style="text;html=1;strokeColor=none;fillColor=none;align=center;verticalAlign=middle;whiteSpace=wrap;rounded=0;fontColor=#FF8000;" parent="47" vertex="1">
                    <mxGeometry x="5" y="40" width="145" height="30" as="geometry"/>
                </mxCell>
                <mxCell id="50" value="" style="endArrow=classic;html=1;fontColor=#FF8000;entryX=0;entryY=0.5;entryDx=0;entryDy=0;exitX=1;exitY=0.5;exitDx=0;exitDy=0;" parent="56" source="48" target="52" edge="1">
                    <mxGeometry width="50" height="50" relative="1" as="geometry">
                        <mxPoint x="215" y="80" as="sourcePoint"/>
                        <mxPoint x="265" y="30" as="targetPoint"/>
                    </mxGeometry>
                </mxCell>
                <mxCell id="51" value="" style="endArrow=classic;html=1;fontColor=#FF8000;exitX=0;exitY=0.5;exitDx=0;exitDy=0;entryX=1;entryY=0.5;entryDx=0;entryDy=0;" parent="56" source="53" target="49" edge="1">
                    <mxGeometry width="50" height="50" relative="1" as="geometry">
                        <mxPoint x="215" y="80" as="sourcePoint"/>
                        <mxPoint x="265" y="30" as="targetPoint"/>
                    </mxGeometry>
                </mxCell>
                <mxCell id="52" value="&lt;div style=&quot;color: rgb(204, 204, 204); background-color: rgb(31, 31, 31); font-family: &amp;quot;Droid Sans Mono&amp;quot;, &amp;quot;monospace&amp;quot;, monospace; font-size: 14px; line-height: 19px;&quot;&gt;&lt;div&gt;&lt;span style=&quot;color: #ce9178;&quot;&gt;axi_bvalid&lt;/span&gt;&lt;/div&gt;&lt;/div&gt;" style="text;html=1;strokeColor=none;fillColor=none;align=center;verticalAlign=middle;whiteSpace=wrap;rounded=0;fontColor=#FF8000;" parent="56" vertex="1">
                    <mxGeometry x="365" width="150" height="30" as="geometry"/>
                </mxCell>
                <mxCell id="53" value="&lt;div style=&quot;color: rgb(204, 204, 204); background-color: rgb(31, 31, 31); font-family: &amp;quot;Droid Sans Mono&amp;quot;, &amp;quot;monospace&amp;quot;, monospace; font-size: 14px; line-height: 19px;&quot;&gt;&lt;div&gt;&lt;span style=&quot;color: rgb(206, 145, 120);&quot;&gt;axi_bready&lt;/span&gt;&lt;br&gt;&lt;/div&gt;&lt;/div&gt;" style="text;html=1;strokeColor=none;fillColor=none;align=center;verticalAlign=middle;whiteSpace=wrap;rounded=0;fontColor=#FF8000;" parent="56" vertex="1">
                    <mxGeometry x="370" y="40" width="145" height="30" as="geometry"/>
                </mxCell>
                <mxCell id="54" value="&lt;div style=&quot;color: rgb(204, 204, 204); background-color: rgb(31, 31, 31); font-family: &amp;quot;Droid Sans Mono&amp;quot;, &amp;quot;monospace&amp;quot;, monospace; font-size: 14px; line-height: 19px;&quot;&gt;&lt;span style=&quot;color: #4fc1ff;&quot;&gt;REQ_T&lt;/span&gt;&lt;/div&gt;" style="text;html=1;strokeColor=default;fillColor=#000066;align=center;verticalAlign=middle;whiteSpace=wrap;rounded=0;fontColor=#FF8000;" parent="56" vertex="1">
                    <mxGeometry x="-52" width="60" height="30" as="geometry"/>
                </mxCell>
                <mxCell id="55" value="&lt;div style=&quot;color: rgb(204, 204, 204); background-color: rgb(31, 31, 31); font-family: &amp;quot;Droid Sans Mono&amp;quot;, &amp;quot;monospace&amp;quot;, monospace; font-weight: normal; font-size: 14px; line-height: 19px;&quot;&gt;&lt;div&gt;&lt;span style=&quot;color: #4fc1ff;&quot;&gt;RESP_T&lt;/span&gt;&lt;/div&gt;&lt;/div&gt;" style="text;whiteSpace=wrap;html=1;fontColor=#FF8000;strokeColor=default;" parent="56" vertex="1">
                    <mxGeometry x="-52" y="39" width="60" height="31" as="geometry"/>
                </mxCell>
                <mxCell id="57" value="&lt;div style=&quot;color: rgb(204, 204, 204); background-color: rgb(31, 31, 31); font-family: &amp;quot;Droid Sans Mono&amp;quot;, &amp;quot;monospace&amp;quot;, monospace; font-size: 14px; line-height: 19px;&quot;&gt;&lt;div&gt;&lt;span style=&quot;color: #ce9178;&quot;&gt;axi_bid&lt;/span&gt;&lt;/div&gt;&lt;div&gt;&lt;span style=&quot;color: #ce9178;&quot;&gt;axi_bresp&lt;/span&gt;&lt;/div&gt;&lt;/div&gt;" style="text;html=1;strokeColor=default;fillColor=none;align=center;verticalAlign=middle;whiteSpace=wrap;rounded=0;fontColor=#FF8000;" parent="1" vertex="1">
                    <mxGeometry x="305" y="608" width="155" height="60" as="geometry"/>
                </mxCell>
                <mxCell id="59" value="&lt;div style=&quot;color: rgb(204, 204, 204); background-color: rgb(31, 31, 31); font-family: &amp;quot;Droid Sans Mono&amp;quot;, &amp;quot;monospace&amp;quot;, monospace; font-size: 14px; line-height: 19px;&quot;&gt;&lt;div&gt;&lt;span style=&quot;color: #ce9178;&quot;&gt;axi_bid&lt;/span&gt;&lt;/div&gt;&lt;div&gt;&lt;span style=&quot;color: #ce9178;&quot;&gt;axi_bresp&lt;/span&gt;&lt;/div&gt;&lt;/div&gt;" style="text;html=1;strokeColor=default;fillColor=none;align=center;verticalAlign=middle;whiteSpace=wrap;rounded=0;fontColor=#FF8000;" parent="1" vertex="1">
                    <mxGeometry x="597.5" y="608" width="155" height="60" as="geometry"/>
                </mxCell>
                <mxCell id="60" value="" style="shape=flexArrow;endArrow=classic;html=1;fontColor=#FF8000;width=11.764705882352942;endSize=8.329411764705883;entryX=1;entryY=0.5;entryDx=0;entryDy=0;exitX=0;exitY=0.5;exitDx=0;exitDy=0;" parent="1" source="59" target="57" edge="1">
                    <mxGeometry width="50" height="50" relative="1" as="geometry">
                        <mxPoint x="550" y="637.41" as="sourcePoint"/>
                        <mxPoint x="480" y="637.82" as="targetPoint"/>
                    </mxGeometry>
                </mxCell>
                <mxCell id="61" value="" style="group" parent="1" vertex="1" connectable="0">
                    <mxGeometry x="235" y="1046" width="515" height="260" as="geometry"/>
                </mxCell>
                <mxCell id="62" value="" style="group" parent="61" vertex="1" connectable="0">
                    <mxGeometry x="75" width="150" height="70" as="geometry"/>
                </mxCell>
                <mxCell id="63" value="&lt;div style=&quot;color: rgb(204, 204, 204); background-color: rgb(31, 31, 31); font-family: &amp;quot;Droid Sans Mono&amp;quot;, &amp;quot;monospace&amp;quot;, monospace; font-size: 14px; line-height: 19px;&quot;&gt;&lt;div&gt;&lt;span style=&quot;color: #ce9178;&quot;&gt;axi_arvalid&lt;/span&gt;&lt;/div&gt;&lt;/div&gt;" style="text;html=1;strokeColor=none;fillColor=none;align=center;verticalAlign=middle;whiteSpace=wrap;rounded=0;fontColor=#FF8000;" parent="62" vertex="1">
                    <mxGeometry width="150" height="30" as="geometry"/>
                </mxCell>
                <mxCell id="64" value="&lt;div style=&quot;color: rgb(204, 204, 204); background-color: rgb(31, 31, 31); font-family: &amp;quot;Droid Sans Mono&amp;quot;, &amp;quot;monospace&amp;quot;, monospace; font-size: 14px; line-height: 19px;&quot;&gt;&lt;div&gt;&lt;span style=&quot;color: rgb(206, 145, 120);&quot;&gt;axi_arready&lt;/span&gt;&lt;br&gt;&lt;/div&gt;&lt;/div&gt;" style="text;html=1;strokeColor=none;fillColor=none;align=center;verticalAlign=middle;whiteSpace=wrap;rounded=0;fontColor=#FF8000;" parent="62" vertex="1">
                    <mxGeometry x="5" y="40" width="145" height="30" as="geometry"/>
                </mxCell>
                <mxCell id="65" value="" style="endArrow=classic;html=1;fontColor=#FF8000;entryX=0;entryY=0.5;entryDx=0;entryDy=0;exitX=1;exitY=0.5;exitDx=0;exitDy=0;" parent="61" source="63" target="67" edge="1">
                    <mxGeometry width="50" height="50" relative="1" as="geometry">
                        <mxPoint x="215" y="80" as="sourcePoint"/>
                        <mxPoint x="265" y="30" as="targetPoint"/>
                    </mxGeometry>
                </mxCell>
                <mxCell id="66" value="" style="endArrow=classic;html=1;fontColor=#FF8000;exitX=0;exitY=0.5;exitDx=0;exitDy=0;entryX=1;entryY=0.5;entryDx=0;entryDy=0;" parent="61" source="68" target="64" edge="1">
                    <mxGeometry width="50" height="50" relative="1" as="geometry">
                        <mxPoint x="215" y="80" as="sourcePoint"/>
                        <mxPoint x="265" y="30" as="targetPoint"/>
                    </mxGeometry>
                </mxCell>
                <mxCell id="67" value="&lt;div style=&quot;color: rgb(204, 204, 204); background-color: rgb(31, 31, 31); font-family: &amp;quot;Droid Sans Mono&amp;quot;, &amp;quot;monospace&amp;quot;, monospace; font-size: 14px; line-height: 19px;&quot;&gt;&lt;div&gt;&lt;span style=&quot;color: #ce9178;&quot;&gt;axi_arvalid&lt;/span&gt;&lt;/div&gt;&lt;/div&gt;" style="text;html=1;strokeColor=none;fillColor=none;align=center;verticalAlign=middle;whiteSpace=wrap;rounded=0;fontColor=#FF8000;" parent="61" vertex="1">
                    <mxGeometry x="365" width="150" height="30" as="geometry"/>
                </mxCell>
                <mxCell id="68" value="&lt;div style=&quot;color: rgb(204, 204, 204); background-color: rgb(31, 31, 31); font-family: &amp;quot;Droid Sans Mono&amp;quot;, &amp;quot;monospace&amp;quot;, monospace; font-size: 14px; line-height: 19px;&quot;&gt;&lt;div&gt;&lt;span style=&quot;color: rgb(206, 145, 120);&quot;&gt;axi_arready&lt;/span&gt;&lt;br&gt;&lt;/div&gt;&lt;/div&gt;" style="text;html=1;strokeColor=none;fillColor=none;align=center;verticalAlign=middle;whiteSpace=wrap;rounded=0;fontColor=#FF8000;" parent="61" vertex="1">
                    <mxGeometry x="370" y="40" width="145" height="30" as="geometry"/>
                </mxCell>
                <mxCell id="69" value="&lt;div style=&quot;color: rgb(204, 204, 204); background-color: rgb(31, 31, 31); font-family: &amp;quot;Droid Sans Mono&amp;quot;, &amp;quot;monospace&amp;quot;, monospace; font-size: 14px; line-height: 19px;&quot;&gt;&lt;span style=&quot;color: #4fc1ff;&quot;&gt;REQ_T&lt;/span&gt;&lt;/div&gt;" style="text;html=1;strokeColor=default;fillColor=#000066;align=center;verticalAlign=middle;whiteSpace=wrap;rounded=0;fontColor=#FF8000;" parent="61" vertex="1">
                    <mxGeometry x="-46" y="-280" width="60" height="310" as="geometry"/>
                </mxCell>
                <mxCell id="70" value="&lt;div style=&quot;color: rgb(204, 204, 204); background-color: rgb(31, 31, 31); font-family: &amp;quot;Droid Sans Mono&amp;quot;, &amp;quot;monospace&amp;quot;, monospace; font-weight: normal; font-size: 14px; line-height: 19px;&quot;&gt;&lt;div&gt;&lt;span style=&quot;color: #4fc1ff;&quot;&gt;RESP_T&lt;/span&gt;&lt;/div&gt;&lt;/div&gt;" style="text;whiteSpace=wrap;html=1;fontColor=#FF8000;strokeColor=default;verticalAlign=middle;align=center;" parent="61" vertex="1">
                    <mxGeometry x="-44" y="36" width="60" height="215" as="geometry"/>
                </mxCell>
                <mxCell id="10" value="&lt;div style=&quot;color: rgb(204, 204, 204); background-color: rgb(31, 31, 31); font-family: &amp;quot;Droid Sans Mono&amp;quot;, &amp;quot;monospace&amp;quot;, monospace; font-weight: normal; font-size: 14px; line-height: 19px;&quot;&gt;&lt;div&gt;&lt;span style=&quot;color: #4fc1ff;&quot;&gt;R_CHAN_T&lt;/span&gt;&lt;/div&gt;&lt;/div&gt;" style="text;whiteSpace=wrap;html=1;fontColor=#FF8000;rotation=-90;" parent="61" vertex="1">
                    <mxGeometry x="11.5" y="170.5" width="100" height="27" as="geometry"/>
                </mxCell>
                <mxCell id="71" value="&lt;div style=&quot;color: rgb(204, 204, 204); background-color: rgb(31, 31, 31); font-family: &amp;quot;Droid Sans Mono&amp;quot;, &amp;quot;monospace&amp;quot;, monospace; font-size: 14px; line-height: 19px;&quot;&gt;&lt;div&gt;&lt;span style=&quot;color: #ce9178;&quot;&gt;axi_araddr&lt;/span&gt;&lt;/div&gt;&lt;div&gt;&lt;span style=&quot;color: #ce9178;&quot;&gt;axi_arburst&lt;/span&gt;&lt;/div&gt;&lt;div&gt;&lt;span style=&quot;color: #ce9178;&quot;&gt;axi_arcache&lt;/span&gt;&lt;/div&gt;&lt;div&gt;&lt;span style=&quot;color: #ce9178;&quot;&gt;axi_arid&lt;/span&gt;&lt;/div&gt;&lt;div&gt;&lt;span style=&quot;color: #ce9178;&quot;&gt;axi_arlen&lt;/span&gt;&lt;/div&gt;&lt;div&gt;&lt;span style=&quot;color: #ce9178;&quot;&gt;axi_arlock&lt;/span&gt;&lt;/div&gt;&lt;div&gt;&lt;span style=&quot;color: #ce9178;&quot;&gt;axi_arprot&lt;/span&gt;&lt;/div&gt;&lt;div&gt;&lt;span style=&quot;color: #ce9178;&quot;&gt;axi_arqos&lt;/span&gt;&lt;/div&gt;&lt;div&gt;&lt;span style=&quot;color: #ce9178;&quot;&gt;axi_arregion&lt;/span&gt;&lt;/div&gt;&lt;div&gt;&lt;span style=&quot;color: #ce9178;&quot;&gt;axi_arsize&lt;/span&gt;&lt;/div&gt;&lt;div&gt;&lt;span style=&quot;color: #ce9178;&quot;&gt;axi_aruser&lt;/span&gt;&lt;/div&gt;&lt;/div&gt;" style="text;html=1;strokeColor=default;fillColor=none;align=center;verticalAlign=middle;whiteSpace=wrap;rounded=0;fontColor=#FFFFFF;" parent="1" vertex="1">
                    <mxGeometry x="597" y="771" width="150" height="260" as="geometry"/>
                </mxCell>
                <mxCell id="72" value="" style="group" parent="1" vertex="1" connectable="0">
                    <mxGeometry x="245" y="1324" width="515" height="79" as="geometry"/>
                </mxCell>
                <mxCell id="73" value="" style="group" parent="72" vertex="1" connectable="0">
                    <mxGeometry x="75" width="150" height="70" as="geometry"/>
                </mxCell>
                <mxCell id="74" value="&lt;div style=&quot;color: rgb(204, 204, 204); background-color: rgb(31, 31, 31); font-family: &amp;quot;Droid Sans Mono&amp;quot;, &amp;quot;monospace&amp;quot;, monospace; font-size: 14px; line-height: 19px;&quot;&gt;&lt;div&gt;&lt;span style=&quot;color: #ce9178;&quot;&gt;axi_rvalid&lt;/span&gt;&lt;/div&gt;&lt;/div&gt;" style="text;html=1;strokeColor=none;fillColor=none;align=center;verticalAlign=middle;whiteSpace=wrap;rounded=0;fontColor=#FF8000;" parent="73" vertex="1">
                    <mxGeometry width="150" height="30" as="geometry"/>
                </mxCell>
                <mxCell id="75" value="&lt;div style=&quot;color: rgb(204, 204, 204); background-color: rgb(31, 31, 31); font-family: &amp;quot;Droid Sans Mono&amp;quot;, &amp;quot;monospace&amp;quot;, monospace; font-size: 14px; line-height: 19px;&quot;&gt;&lt;div&gt;&lt;span style=&quot;color: rgb(206, 145, 120);&quot;&gt;axi_rready&lt;/span&gt;&lt;br&gt;&lt;/div&gt;&lt;/div&gt;" style="text;html=1;strokeColor=none;fillColor=none;align=center;verticalAlign=middle;whiteSpace=wrap;rounded=0;fontColor=#FF8000;" parent="73" vertex="1">
                    <mxGeometry x="5" y="40" width="145" height="30" as="geometry"/>
                </mxCell>
                <mxCell id="76" value="" style="endArrow=classic;html=1;fontColor=#FF8000;entryX=0;entryY=0.5;entryDx=0;entryDy=0;exitX=1;exitY=0.5;exitDx=0;exitDy=0;" parent="72" source="74" target="78" edge="1">
                    <mxGeometry width="50" height="50" relative="1" as="geometry">
                        <mxPoint x="215" y="80" as="sourcePoint"/>
                        <mxPoint x="265" y="30" as="targetPoint"/>
                    </mxGeometry>
                </mxCell>
                <mxCell id="77" value="" style="endArrow=classic;html=1;fontColor=#FF8000;exitX=0;exitY=0.5;exitDx=0;exitDy=0;entryX=1;entryY=0.5;entryDx=0;entryDy=0;" parent="72" source="79" target="75" edge="1">
                    <mxGeometry width="50" height="50" relative="1" as="geometry">
                        <mxPoint x="215" y="80" as="sourcePoint"/>
                        <mxPoint x="265" y="30" as="targetPoint"/>
                    </mxGeometry>
                </mxCell>
                <mxCell id="78" value="&lt;div style=&quot;color: rgb(204, 204, 204); background-color: rgb(31, 31, 31); font-family: &amp;quot;Droid Sans Mono&amp;quot;, &amp;quot;monospace&amp;quot;, monospace; font-size: 14px; line-height: 19px;&quot;&gt;&lt;div&gt;&lt;span style=&quot;color: #ce9178;&quot;&gt;axi_rvalid&lt;/span&gt;&lt;/div&gt;&lt;/div&gt;" style="text;html=1;strokeColor=none;fillColor=none;align=center;verticalAlign=middle;whiteSpace=wrap;rounded=0;fontColor=#FF8000;" parent="72" vertex="1">
                    <mxGeometry x="365" width="150" height="30" as="geometry"/>
                </mxCell>
                <mxCell id="79" value="&lt;div style=&quot;color: rgb(204, 204, 204); background-color: rgb(31, 31, 31); font-family: &amp;quot;Droid Sans Mono&amp;quot;, &amp;quot;monospace&amp;quot;, monospace; font-size: 14px; line-height: 19px;&quot;&gt;&lt;div&gt;&lt;span style=&quot;color: rgb(206, 145, 120);&quot;&gt;axi_rready&lt;/span&gt;&lt;br&gt;&lt;/div&gt;&lt;/div&gt;" style="text;html=1;strokeColor=none;fillColor=none;align=center;verticalAlign=middle;whiteSpace=wrap;rounded=0;fontColor=#FF8000;" parent="72" vertex="1">
                    <mxGeometry x="370" y="40" width="145" height="30" as="geometry"/>
                </mxCell>
                <mxCell id="80" value="&lt;div style=&quot;color: rgb(204, 204, 204); background-color: rgb(31, 31, 31); font-family: &amp;quot;Droid Sans Mono&amp;quot;, &amp;quot;monospace&amp;quot;, monospace; font-size: 14px; line-height: 19px;&quot;&gt;&lt;span style=&quot;color: #4fc1ff;&quot;&gt;REQ_T&lt;/span&gt;&lt;/div&gt;" style="text;html=1;strokeColor=default;fillColor=#000066;align=center;verticalAlign=middle;whiteSpace=wrap;rounded=0;fontColor=#FF8000;" parent="72" vertex="1">
                    <mxGeometry x="-55" width="60" height="30" as="geometry"/>
                </mxCell>
                <mxCell id="81" value="&lt;div style=&quot;color: rgb(204, 204, 204); background-color: rgb(31, 31, 31); font-family: &amp;quot;Droid Sans Mono&amp;quot;, &amp;quot;monospace&amp;quot;, monospace; font-weight: normal; font-size: 14px; line-height: 19px;&quot;&gt;&lt;div&gt;&lt;span style=&quot;color: #4fc1ff;&quot;&gt;RESP_T&lt;/span&gt;&lt;/div&gt;&lt;/div&gt;" style="text;whiteSpace=wrap;html=1;fontColor=#FF8000;strokeColor=default;" parent="72" vertex="1">
                    <mxGeometry x="-55" y="39" width="60" height="30" as="geometry"/>
                </mxCell>
                <mxCell id="82" value="&lt;div style=&quot;color: rgb(204, 204, 204); background-color: rgb(31, 31, 31); font-family: &amp;quot;Droid Sans Mono&amp;quot;, &amp;quot;monospace&amp;quot;, monospace; font-size: 14px; line-height: 19px;&quot;&gt;&lt;div&gt;&lt;span style=&quot;color: #ce9178;&quot;&gt;axi_rdata&lt;/span&gt;&lt;/div&gt;&lt;div&gt;&lt;span style=&quot;color: #ce9178;&quot;&gt;axi_rid&lt;/span&gt;&lt;/div&gt;&lt;div&gt;&lt;span style=&quot;color: #ce9178;&quot;&gt;axi_rlast&lt;/span&gt;&lt;/div&gt;&lt;div&gt;&lt;span style=&quot;color: #ce9178;&quot;&gt;axi_rresp&lt;/span&gt;&lt;/div&gt;&lt;div&gt;&lt;span style=&quot;color: #ce9178;&quot;&gt;axi_ruser&lt;/span&gt;&lt;/div&gt;&lt;div&gt;&lt;span style=&quot;color: #ce9178;&quot;&gt;axi_rvalid&lt;/span&gt;&lt;/div&gt;&lt;/div&gt;" style="text;html=1;strokeColor=default;fillColor=none;align=center;verticalAlign=middle;whiteSpace=wrap;rounded=0;fontColor=#FF8000;" parent="1" vertex="1">
                    <mxGeometry x="598" y="1146" width="150" height="150" as="geometry"/>
                </mxCell>
                <mxCell id="84" value="Text" style="text;html=1;strokeColor=none;fillColor=none;align=center;verticalAlign=middle;whiteSpace=wrap;rounded=0;" vertex="1" parent="1">
                    <mxGeometry x="350" y="50" width="60" height="30" as="geometry"/>
                </mxCell>
                <mxCell id="86" value="" style="group" vertex="1" connectable="0" parent="1">
                    <mxGeometry x="75" y="30" width="70" height="30" as="geometry"/>
                </mxCell>
                <mxCell id="83" value="" style="endArrow=classic;html=1;entryX=-0.013;entryY=0.153;entryDx=0;entryDy=0;entryPerimeter=0;" edge="1" parent="86" target="3">
                    <mxGeometry width="50" height="50" relative="1" as="geometry">
                        <mxPoint x="15" y="27" as="sourcePoint"/>
                        <mxPoint x="325" y="5" as="targetPoint"/>
                    </mxGeometry>
                </mxCell>
                <mxCell id="85" value="__addr_t" style="text;html=1;align=center;verticalAlign=middle;resizable=0;points=[];autosize=1;strokeColor=none;fillColor=none;" vertex="1" parent="86">
                    <mxGeometry width="70" height="30" as="geometry"/>
                </mxCell>
                <mxCell id="87" value="" style="group" vertex="1" connectable="0" parent="1">
                    <mxGeometry x="70" y="82" width="70" height="30" as="geometry"/>
                </mxCell>
                <mxCell id="89" value="__id_t" style="text;html=1;align=center;verticalAlign=middle;resizable=0;points=[];autosize=1;strokeColor=none;fillColor=none;" vertex="1" parent="87">
                    <mxGeometry x="5" width="60" height="30" as="geometry"/>
                </mxCell>
                <mxCell id="90" value="" style="group" vertex="1" connectable="0" parent="1">
                    <mxGeometry x="70" y="180" width="70" height="30" as="geometry"/>
                </mxCell>
                <mxCell id="91" value="" style="endArrow=classic;html=1;entryX=0;entryY=0.75;entryDx=0;entryDy=0;" edge="1" parent="90" target="3">
                    <mxGeometry width="50" height="50" relative="1" as="geometry">
                        <mxPoint x="15" y="27" as="sourcePoint"/>
                        <mxPoint x="325" y="5" as="targetPoint"/>
                    </mxGeometry>
                </mxCell>
                <mxCell id="92" value="__user_t" style="text;html=1;align=center;verticalAlign=middle;resizable=0;points=[];autosize=1;strokeColor=none;fillColor=none;" vertex="1" parent="90">
                    <mxGeometry width="70" height="30" as="geometry"/>
                </mxCell>
                <mxCell id="88" value="" style="endArrow=classic;html=1;entryX=0.01;entryY=0.311;entryDx=0;entryDy=0;entryPerimeter=0;" edge="1" parent="1" source="89" target="3">
                    <mxGeometry width="50" height="50" relative="1" as="geometry">
                        <mxPoint x="85" y="109" as="sourcePoint"/>
                        <mxPoint x="395" y="87" as="targetPoint"/>
                    </mxGeometry>
                </mxCell>
                <mxCell id="95" value="" style="endArrow=classic;html=1;entryX=-0.009;entryY=0.11;entryDx=0;entryDy=0;entryPerimeter=0;" edge="1" parent="1" target="4">
                    <mxGeometry relative="1" as="geometry">
                        <mxPoint x="110" y="403" as="sourcePoint"/>
                        <mxPoint x="210" y="420" as="targetPoint"/>
                    </mxGeometry>
                </mxCell>
                <mxCell id="96" value="__data_t" style="edgeLabel;resizable=0;html=1;align=center;verticalAlign=middle;strokeColor=default;fillColor=#000066;" connectable="0" vertex="1" parent="95">
                    <mxGeometry relative="1" as="geometry">
                        <mxPoint x="-72" y="-13" as="offset"/>
                    </mxGeometry>
                </mxCell>
                <mxCell id="97" value="" style="endArrow=classic;html=1;fontSize=12;entryX=-0.009;entryY=0.805;entryDx=0;entryDy=0;entryPerimeter=0;" edge="1" parent="1" target="4">
                    <mxGeometry relative="1" as="geometry">
                        <mxPoint x="140" y="487" as="sourcePoint"/>
                        <mxPoint x="430" y="400" as="targetPoint"/>
                    </mxGeometry>
                </mxCell>
                <mxCell id="98" value="__strb_t" style="edgeLabel;resizable=0;html=1;align=center;verticalAlign=middle;strokeColor=default;fontSize=12;fillColor=#000066;" connectable="0" vertex="1" parent="97">
                    <mxGeometry relative="1" as="geometry">
                        <mxPoint x="-72" y="-17" as="offset"/>
                    </mxGeometry>
                </mxCell>
                <mxCell id="99" value="" style="endArrow=classic;html=1;entryX=0;entryY=0.75;entryDx=0;entryDy=0;" edge="1" parent="1">
                    <mxGeometry width="50" height="50" relative="1" as="geometry">
                        <mxPoint x="85" y="500" as="sourcePoint"/>
                        <mxPoint x="305" y="500.5000000000001" as="targetPoint"/>
                    </mxGeometry>
                </mxCell>
                <mxCell id="101" value="__user_t" style="text;html=1;strokeColor=none;fillColor=none;align=center;verticalAlign=middle;whiteSpace=wrap;rounded=0;fontSize=12;" vertex="1" parent="1">
                    <mxGeometry x="61" y="471" width="60" height="30" as="geometry"/>
                </mxCell>
                <mxCell id="106" value="" style="endArrow=classic;html=1;fontSize=12;entryX=0;entryY=0.25;entryDx=0;entryDy=0;" edge="1" parent="1">
                    <mxGeometry relative="1" as="geometry">
                        <mxPoint x="110" y="633" as="sourcePoint"/>
                        <mxPoint x="305" y="633" as="targetPoint"/>
                        <Array as="points">
                            <mxPoint x="210" y="633"/>
                        </Array>
                    </mxGeometry>
                </mxCell>
                <mxCell id="107" value="__id_t" style="edgeLabel;resizable=0;html=1;align=center;verticalAlign=middle;strokeColor=default;fontSize=12;fillColor=#000066;" connectable="0" vertex="1" parent="106">
                    <mxGeometry relative="1" as="geometry">
                        <mxPoint x="-58" y="-13" as="offset"/>
                    </mxGeometry>
                </mxCell>
                <mxCell id="108" value="" style="endArrow=classic;html=1;fontSize=12;entryX=0;entryY=0.75;entryDx=0;entryDy=0;" edge="1" parent="1" target="57">
                    <mxGeometry relative="1" as="geometry">
                        <mxPoint x="120" y="653" as="sourcePoint"/>
                        <mxPoint x="290" y="590" as="targetPoint"/>
                    </mxGeometry>
                </mxCell>
                <mxCell id="109" value="__user_t" style="edgeLabel;resizable=0;html=1;align=center;verticalAlign=middle;strokeColor=default;fontSize=12;fillColor=#000066;" connectable="0" vertex="1" parent="108">
                    <mxGeometry relative="1" as="geometry">
                        <mxPoint x="-121" as="offset"/>
                    </mxGeometry>
                </mxCell>
                <mxCell id="110" value="" style="endArrow=classic;html=1;fontSize=12;entryX=-0.001;entryY=0.194;entryDx=0;entryDy=0;entryPerimeter=0;" edge="1" parent="1" target="5">
                    <mxGeometry relative="1" as="geometry">
                        <mxPoint x="110" y="820" as="sourcePoint"/>
                        <mxPoint x="350" y="820" as="targetPoint"/>
                    </mxGeometry>
                </mxCell>
                <mxCell id="111" value="__addr_t" style="edgeLabel;resizable=0;html=1;align=center;verticalAlign=middle;strokeColor=default;fontSize=12;fillColor=#000066;" connectable="0" vertex="1" parent="110">
                    <mxGeometry relative="1" as="geometry">
                        <mxPoint x="-90" y="-10" as="offset"/>
                    </mxGeometry>
                </mxCell>
                <mxCell id="112" value="" style="endArrow=classic;html=1;fontSize=12;" edge="1" parent="1">
                    <mxGeometry relative="1" as="geometry">
                        <mxPoint x="100" y="850" as="sourcePoint"/>
                        <mxPoint x="310" y="850" as="targetPoint"/>
                        <Array as="points">
                            <mxPoint x="200" y="850"/>
                        </Array>
                    </mxGeometry>
                </mxCell>
                <mxCell id="113" value="__id_t" style="edgeLabel;resizable=0;html=1;align=center;verticalAlign=middle;strokeColor=default;fontSize=12;fillColor=#000066;" connectable="0" vertex="1" parent="112">
                    <mxGeometry relative="1" as="geometry">
                        <mxPoint x="-85" y="-10" as="offset"/>
                    </mxGeometry>
                </mxCell>
                <mxCell id="114" value="" style="endArrow=classic;html=1;fontSize=12;entryX=0;entryY=0.75;entryDx=0;entryDy=0;" edge="1" parent="1" target="5">
                    <mxGeometry relative="1" as="geometry">
                        <mxPoint x="120" y="965" as="sourcePoint"/>
                        <mxPoint x="270" y="890" as="targetPoint"/>
                    </mxGeometry>
                </mxCell>
                <mxCell id="115" value="__user_t" style="edgeLabel;resizable=0;html=1;align=center;verticalAlign=middle;strokeColor=default;fontSize=12;fillColor=#000066;" connectable="0" vertex="1" parent="114">
                    <mxGeometry relative="1" as="geometry">
                        <mxPoint x="-81" y="-15" as="offset"/>
                    </mxGeometry>
                </mxCell>
                <mxCell id="116" value="" style="endArrow=classic;html=1;fontSize=12;entryX=0.004;entryY=0.16;entryDx=0;entryDy=0;entryPerimeter=0;" edge="1" parent="1" target="9">
                    <mxGeometry relative="1" as="geometry">
                        <mxPoint x="120" y="1174" as="sourcePoint"/>
                        <mxPoint x="270" y="1230" as="targetPoint"/>
                    </mxGeometry>
                </mxCell>
                <mxCell id="117" value="__data_t" style="edgeLabel;resizable=0;html=1;align=center;verticalAlign=middle;strokeColor=default;fontSize=12;fillColor=#000066;" connectable="0" vertex="1" parent="116">
                    <mxGeometry relative="1" as="geometry">
                        <mxPoint x="-72" y="-14" as="offset"/>
                    </mxGeometry>
                </mxCell>
                <mxCell id="118" value="" style="endArrow=classic;html=1;fontSize=12;entryX=0.009;entryY=0.339;entryDx=0;entryDy=0;entryPerimeter=0;" edge="1" parent="1" target="9">
                    <mxGeometry relative="1" as="geometry">
                        <mxPoint x="120" y="1200" as="sourcePoint"/>
                        <mxPoint x="270" y="1230" as="targetPoint"/>
                    </mxGeometry>
                </mxCell>
                <mxCell id="119" value="__id_t" style="edgeLabel;resizable=0;html=1;align=center;verticalAlign=middle;strokeColor=default;fontSize=12;fillColor=#000066;" connectable="0" vertex="1" parent="118">
                    <mxGeometry relative="1" as="geometry">
                        <mxPoint x="-77" y="-10" as="offset"/>
                    </mxGeometry>
                </mxCell>
                <mxCell id="120" value="" style="endArrow=classic;html=1;fontSize=12;entryX=-0.007;entryY=0.935;entryDx=0;entryDy=0;entryPerimeter=0;" edge="1" parent="1" target="9">
                    <mxGeometry relative="1" as="geometry">
                        <mxPoint x="140" y="1290" as="sourcePoint"/>
                        <mxPoint x="270" y="1220" as="targetPoint"/>
                    </mxGeometry>
                </mxCell>
                <mxCell id="121" value="__user_t" style="edgeLabel;resizable=0;html=1;align=center;verticalAlign=middle;strokeColor=default;fontSize=12;fillColor=#000066;" connectable="0" vertex="1" parent="120">
                    <mxGeometry relative="1" as="geometry">
                        <mxPoint x="-81" y="-10" as="offset"/>
                    </mxGeometry>
                </mxCell>
                <mxCell id="122" value="OUTPUT" style="text;html=1;strokeColor=none;fillColor=#0000FF;align=center;verticalAlign=middle;whiteSpace=wrap;rounded=0;fontSize=12;" vertex="1" parent="1">
                    <mxGeometry x="185" y="-40" width="270" height="30" as="geometry"/>
                </mxCell>
                <mxCell id="123" value="M_AXI" style="text;html=1;strokeColor=none;fillColor=none;align=center;verticalAlign=middle;whiteSpace=wrap;rounded=0;fontSize=12;" vertex="1" parent="1">
                    <mxGeometry x="185" y="-80" width="270" height="30" as="geometry"/>
                </mxCell>
                <mxCell id="124" value="INPUT" style="text;html=1;strokeColor=none;fillColor=#6666FF;align=center;verticalAlign=middle;whiteSpace=wrap;rounded=0;fontSize=12;" vertex="1" parent="1">
                    <mxGeometry x="590" y="-40" width="160" height="30" as="geometry"/>
                </mxCell>
                <mxCell id="125" value="S_AXI" style="text;html=1;strokeColor=none;fillColor=none;align=center;verticalAlign=middle;whiteSpace=wrap;rounded=0;fontSize=12;" vertex="1" parent="1">
                    <mxGeometry x="530" y="-80" width="270" height="30" as="geometry"/>
                </mxCell>
                <mxCell id="126" value="&lt;div style=&quot;color: rgb(204, 204, 204); background-color: rgb(31, 31, 31); font-family: &amp;quot;Droid Sans Mono&amp;quot;, &amp;quot;monospace&amp;quot;, monospace; font-size: 10px; line-height: 19px;&quot;&gt;&lt;div style=&quot;font-size: 12px;&quot;&gt;&lt;div style=&quot;line-height: 19px;&quot;&gt;&lt;div&gt;`&lt;span style=&quot;color: #d16969;&quot;&gt;define&lt;/span&gt; &lt;span style=&quot;color: #4fc1ff;&quot;&gt;AXI_TYPEDEF_ALL&lt;/span&gt;(&lt;span style=&quot;color: #9cdcfe;&quot;&gt;__name&lt;/span&gt;, &lt;span style=&quot;color: #9cdcfe;&quot;&gt;__addr_t&lt;/span&gt;, &lt;span style=&quot;color: #9cdcfe;&quot;&gt;__id_t&lt;/span&gt;, &lt;span style=&quot;color: #9cdcfe;&quot;&gt;__data_t&lt;/span&gt;, &lt;span style=&quot;color: #9cdcfe;&quot;&gt;__strb_t&lt;/span&gt;, &lt;span style=&quot;color: #9cdcfe;&quot;&gt;__user_t&lt;/span&gt;)                                \&lt;/div&gt;&lt;div&gt;  `&lt;span style=&quot;color: #4fc1ff;&quot;&gt;AXI_TYPEDEF_ALL_CT&lt;/span&gt;(&lt;span style=&quot;color: #9cdcfe;&quot;&gt;__name&lt;/span&gt;, &lt;span style=&quot;color: #9cdcfe;&quot;&gt;__name&lt;/span&gt;``&lt;span style=&quot;color: #4fc1ff;&quot;&gt;_req_t&lt;/span&gt;, &lt;span style=&quot;color: #9cdcfe;&quot;&gt;__name&lt;/span&gt;``&lt;span style=&quot;color: #4fc1ff;&quot;&gt;_resp_t&lt;/span&gt;, &lt;span style=&quot;color: #9cdcfe;&quot;&gt;__addr_t&lt;/span&gt;, &lt;span style=&quot;color: #9cdcfe;&quot;&gt;__id_t&lt;/span&gt;, &lt;span style=&quot;color: #9cdcfe;&quot;&gt;__data_t&lt;/span&gt;, &lt;span style=&quot;color: #9cdcfe;&quot;&gt;__strb_t&lt;/span&gt;, &lt;span style=&quot;color: #9cdcfe;&quot;&gt;__user_t&lt;/span&gt;)&lt;/div&gt;&lt;div&gt;&lt;span style=&quot;color: rgb(106, 153, 85);&quot;&gt;/////////////////////////////////////////////////////////&lt;/span&gt;&lt;/div&gt;&lt;/div&gt;&lt;/div&gt;&lt;/div&gt;" style="text;html=1;strokeColor=none;fillColor=none;align=left;verticalAlign=middle;whiteSpace=wrap;rounded=0;fontSize=10;" vertex="1" parent="1">
                    <mxGeometry x="14" y="-300" width="800" height="220" as="geometry"/>
                </mxCell>
                <mxCell id="127" value="&lt;div style=&quot;color: rgb(204, 204, 204); background-color: rgb(31, 31, 31); font-family: &amp;quot;Droid Sans Mono&amp;quot;, &amp;quot;monospace&amp;quot;, monospace; font-size: 10px; line-height: 19px;&quot;&gt;&lt;div style=&quot;font-size: 10px;&quot;&gt;`&lt;span style=&quot;color: rgb(209, 105, 105); font-size: 10px;&quot;&gt;define&lt;/span&gt; &lt;span style=&quot;color: rgb(79, 193, 255); font-size: 10px;&quot;&gt;AXI_TYPEDEF_ALL_CT&lt;/span&gt;(&lt;span style=&quot;color: rgb(156, 220, 254); font-size: 10px;&quot;&gt;__name&lt;/span&gt;, &lt;span style=&quot;color: rgb(156, 220, 254); font-size: 10px;&quot;&gt;__req&lt;/span&gt;, &lt;span style=&quot;color: rgb(156, 220, 254); font-size: 10px;&quot;&gt;__rsp&lt;/span&gt;, &lt;span style=&quot;color: rgb(156, 220, 254); font-size: 10px;&quot;&gt;__addr_t&lt;/span&gt;, &lt;span style=&quot;color: rgb(156, 220, 254); font-size: 10px;&quot;&gt;__id_t&lt;/span&gt;, &lt;span style=&quot;color: rgb(156, 220, 254); font-size: 10px;&quot;&gt;__data_t&lt;/span&gt;, &lt;span style=&quot;color: rgb(156, 220, 254); font-size: 10px;&quot;&gt;__strb_t&lt;/span&gt;, &lt;span style=&quot;color: rgb(156, 220, 254); font-size: 10px;&quot;&gt;__user_t&lt;/span&gt;) \&lt;/div&gt;&lt;div style=&quot;font-size: 10px;&quot;&gt;  `&lt;span style=&quot;color: rgb(79, 193, 255); font-size: 10px;&quot;&gt;AXI_TYPEDEF_AW_CHAN_T&lt;/span&gt;(&lt;span style=&quot;color: rgb(156, 220, 254); font-size: 10px;&quot;&gt;__name&lt;/span&gt;``&lt;span style=&quot;color: rgb(79, 193, 255); font-size: 10px;&quot;&gt;_aw_chan_t&lt;/span&gt;, &lt;span style=&quot;color: rgb(156, 220, 254); font-size: 10px;&quot;&gt;__addr_t&lt;/span&gt;, &lt;span style=&quot;color: rgb(156, 220, 254); font-size: 10px;&quot;&gt;__id_t&lt;/span&gt;, &lt;span style=&quot;color: rgb(156, 220, 254); font-size: 10px;&quot;&gt;__user_t&lt;/span&gt;)                         \&lt;/div&gt;&lt;div style=&quot;font-size: 10px;&quot;&gt;  `&lt;span style=&quot;color: rgb(79, 193, 255); font-size: 10px;&quot;&gt;AXI_TYPEDEF_W_CHAN_T&lt;/span&gt;(&lt;span style=&quot;color: rgb(156, 220, 254); font-size: 10px;&quot;&gt;__name&lt;/span&gt;``&lt;span style=&quot;color: rgb(79, 193, 255); font-size: 10px;&quot;&gt;_w_chan_t&lt;/span&gt;, &lt;span style=&quot;color: rgb(156, 220, 254); font-size: 10px;&quot;&gt;__data_t&lt;/span&gt;, &lt;span style=&quot;color: rgb(156, 220, 254); font-size: 10px;&quot;&gt;__strb_t&lt;/span&gt;, &lt;span style=&quot;color: rgb(156, 220, 254); font-size: 10px;&quot;&gt;__user_t&lt;/span&gt;)                         \&lt;/div&gt;&lt;div style=&quot;font-size: 10px;&quot;&gt;  `&lt;span style=&quot;color: rgb(79, 193, 255); font-size: 10px;&quot;&gt;AXI_TYPEDEF_B_CHAN_T&lt;/span&gt;(&lt;span style=&quot;color: rgb(156, 220, 254); font-size: 10px;&quot;&gt;__name&lt;/span&gt;``&lt;span style=&quot;color: rgb(79, 193, 255); font-size: 10px;&quot;&gt;_b_chan_t&lt;/span&gt;, &lt;span style=&quot;color: rgb(156, 220, 254); font-size: 10px;&quot;&gt;__id_t&lt;/span&gt;, &lt;span style=&quot;color: rgb(156, 220, 254); font-size: 10px;&quot;&gt;__user_t&lt;/span&gt;)                                     \&lt;/div&gt;&lt;div style=&quot;font-size: 10px;&quot;&gt;  `&lt;span style=&quot;color: rgb(79, 193, 255); font-size: 10px;&quot;&gt;AXI_TYPEDEF_AR_CHAN_T&lt;/span&gt;(&lt;span style=&quot;color: rgb(156, 220, 254); font-size: 10px;&quot;&gt;__name&lt;/span&gt;``&lt;span style=&quot;color: rgb(79, 193, 255); font-size: 10px;&quot;&gt;_ar_chan_t&lt;/span&gt;, &lt;span style=&quot;color: rgb(156, 220, 254); font-size: 10px;&quot;&gt;__addr_t&lt;/span&gt;, &lt;span style=&quot;color: rgb(156, 220, 254); font-size: 10px;&quot;&gt;__id_t&lt;/span&gt;, &lt;span style=&quot;color: rgb(156, 220, 254); font-size: 10px;&quot;&gt;__user_t&lt;/span&gt;)                         \&lt;/div&gt;&lt;div style=&quot;font-size: 10px;&quot;&gt;  `&lt;span style=&quot;color: rgb(79, 193, 255); font-size: 10px;&quot;&gt;AXI_TYPEDEF_R_CHAN_T&lt;/span&gt;(&lt;span style=&quot;color: rgb(156, 220, 254); font-size: 10px;&quot;&gt;__name&lt;/span&gt;``&lt;span style=&quot;color: rgb(79, 193, 255); font-size: 10px;&quot;&gt;_r_chan_t&lt;/span&gt;, &lt;span style=&quot;color: rgb(156, 220, 254); font-size: 10px;&quot;&gt;__data_t&lt;/span&gt;, &lt;span style=&quot;color: rgb(156, 220, 254); font-size: 10px;&quot;&gt;__id_t&lt;/span&gt;, &lt;span style=&quot;color: rgb(156, 220, 254); font-size: 10px;&quot;&gt;__user_t&lt;/span&gt;)                           \&lt;/div&gt;&lt;div style=&quot;font-size: 10px;&quot;&gt;  `&lt;span style=&quot;color: rgb(79, 193, 255); font-size: 10px;&quot;&gt;AXI_TYPEDEF_REQ_T&lt;/span&gt;(&lt;span style=&quot;color: rgb(156, 220, 254); font-size: 10px;&quot;&gt;__req&lt;/span&gt;, &lt;span style=&quot;color: rgb(156, 220, 254); font-size: 10px;&quot;&gt;__name&lt;/span&gt;``&lt;span style=&quot;color: rgb(79, 193, 255); font-size: 10px;&quot;&gt;_aw_chan_t&lt;/span&gt;, &lt;span style=&quot;color: rgb(156, 220, 254); font-size: 10px;&quot;&gt;__name&lt;/span&gt;``&lt;span style=&quot;color: rgb(79, 193, 255); font-size: 10px;&quot;&gt;_w_chan_t&lt;/span&gt;, &lt;span style=&quot;color: rgb(156, 220, 254); font-size: 10px;&quot;&gt;__name&lt;/span&gt;``&lt;span style=&quot;color: rgb(79, 193, 255); font-size: 10px;&quot;&gt;_ar_chan_t&lt;/span&gt;)           \&lt;/div&gt;&lt;div style=&quot;font-size: 10px;&quot;&gt;  `&lt;span style=&quot;color: rgb(79, 193, 255); font-size: 10px;&quot;&gt;AXI_TYPEDEF_RESP_T&lt;/span&gt;(&lt;span style=&quot;color: rgb(156, 220, 254); font-size: 10px;&quot;&gt;__rsp&lt;/span&gt;, &lt;span style=&quot;color: rgb(156, 220, 254); font-size: 10px;&quot;&gt;__name&lt;/span&gt;``&lt;span style=&quot;color: rgb(79, 193, 255); font-size: 10px;&quot;&gt;_b_chan_t&lt;/span&gt;, &lt;span style=&quot;color: rgb(156, 220, 254); font-size: 10px;&quot;&gt;__name&lt;/span&gt;``&lt;span style=&quot;color: rgb(79, 193, 255); font-size: 10px;&quot;&gt;_r_chan_t&lt;/span&gt;)&lt;/div&gt;&lt;/div&gt;" style="text;html=1;strokeColor=none;fillColor=none;align=left;verticalAlign=middle;whiteSpace=wrap;rounded=0;fontSize=10;" vertex="1" parent="1">
                    <mxGeometry x="14" y="-500" width="800" height="220" as="geometry"/>
                </mxCell>
            </root>
        </mxGraphModel>
    </diagram>
</mxfile>